<svg xmlns="http://www.w3.org/2000/svg" width="160" height="160" viewBox="0 0 160 160" fill="none" role="img" aria-labelledby="title desc">
  <title id="title">Sole con onde di calore</title>
  <desc id="desc">Un sole giallo con raggi e tre ondine arancioni che rappresentano il calore.</desc>

  <g stroke="#F6B800" stroke-width="6" stroke-linecap="round">
    <path d="M56 16V28"/>
    <path d="M56 88V100"/>
    <path d="M16 58H28"/>
    <path d="M84 58H96"/>
    <path d="M27.7 29.7L36.2 38.2"/>
    <path d="M75.8 77.8L84.3 86.3"/>
    <path d="M27.7 86.3L36.2 77.8"/>
    <path d="M75.8 38.2L84.3 29.7"/>
  </g>

  <circle cx="56" cy="58" r="21" fill="#FFD43B" stroke="#F6B800" stroke-width="4"/>

  <g stroke="#F28C28" stroke-width="5" stroke-linecap="round" fill="none">
    <path d="M39 119C45 109 53 109 59 119C65 129 73 129 79 119C85 109 93 109 99 119"/>
    <path d="M49 139C55 129 63 129 69 139C75 149 83 149 89 139C95 129 103 129 109 139"/>
    <path d="M93 78C99 68 107 68 113 78C119 88 127 88 133 78"/>
  </g>
</svg>
